<mxfile modified="2024-05-13T14:14:17.039Z" host="app.diagrams.net" agent="Mozilla/5.0 (Macintosh; Intel Mac OS X 10_15_7) AppleWebKit/537.36 (KHTML, like Gecko) Chrome/124.0.0.0 Safari/537.36" etag="nK4IUvGhe1VV53xbhnjg" version="24.4.0" type="device">
  <diagram id="Ht1M8jgEwFfnCIfOTk4-" name="Page-1">
    <mxGraphModel dx="1313" dy="1727" grid="1" gridSize="10" guides="1" tooltips="1" connect="1" arrows="1" fold="1" page="1" pageScale="1" pageWidth="1169" pageHeight="827" math="0" shadow="0">
      <root>
        <mxCell id="0" />
        <mxCell id="1" parent="0" />
        <mxCell id="UEzPUAAOIrF-is8g5C7q-175" value="AWS Cloud" style="points=[[0,0],[0.25,0],[0.5,0],[0.75,0],[1,0],[1,0.25],[1,0.5],[1,0.75],[1,1],[0.75,1],[0.5,1],[0.25,1],[0,1],[0,0.75],[0,0.5],[0,0.25]];outlineConnect=0;gradientColor=none;html=1;whiteSpace=wrap;fontSize=12;fontStyle=0;shape=mxgraph.aws4.group;grIcon=mxgraph.aws4.group_aws_cloud_alt;strokeColor=#232F3E;fillColor=none;verticalAlign=top;align=left;spacingLeft=30;fontColor=#232F3E;dashed=0;labelBackgroundColor=#ffffff;container=1;pointerEvents=0;collapsible=0;recursiveResize=0;" parent="1" vertex="1">
          <mxGeometry x="70" y="-760" width="1090" height="880" as="geometry" />
        </mxCell>
        <mxCell id="S1eIZQToErscqUUK1vJn-3" value="VPC" style="points=[[0,0],[0.25,0],[0.5,0],[0.75,0],[1,0],[1,0.25],[1,0.5],[1,0.75],[1,1],[0.75,1],[0.5,1],[0.25,1],[0,1],[0,0.75],[0,0.5],[0,0.25]];outlineConnect=0;gradientColor=none;html=1;whiteSpace=wrap;fontSize=12;fontStyle=0;container=1;pointerEvents=0;collapsible=0;recursiveResize=0;shape=mxgraph.aws4.group;grIcon=mxgraph.aws4.group_vpc;strokeColor=#248814;fillColor=none;verticalAlign=top;align=left;spacingLeft=30;fontColor=#AAB7B8;dashed=0;" parent="UEzPUAAOIrF-is8g5C7q-175" vertex="1">
          <mxGeometry x="160" y="130" width="770" height="710" as="geometry" />
        </mxCell>
        <mxCell id="S1eIZQToErscqUUK1vJn-5" value="Private Subnet" style="points=[[0,0],[0.25,0],[0.5,0],[0.75,0],[1,0],[1,0.25],[1,0.5],[1,0.75],[1,1],[0.75,1],[0.5,1],[0.25,1],[0,1],[0,0.75],[0,0.5],[0,0.25]];outlineConnect=0;gradientColor=none;html=1;whiteSpace=wrap;fontSize=12;fontStyle=0;container=1;pointerEvents=0;collapsible=0;recursiveResize=0;shape=mxgraph.aws4.group;grIcon=mxgraph.aws4.group_security_group;grStroke=0;strokeColor=#147EBA;fillColor=#E6F2F8;verticalAlign=top;align=left;spacingLeft=30;fontColor=#147EBA;dashed=0;" parent="S1eIZQToErscqUUK1vJn-3" vertex="1">
          <mxGeometry x="50" y="310" width="280" height="360" as="geometry" />
        </mxCell>
        <mxCell id="S1eIZQToErscqUUK1vJn-12" value="Availability zone" style="sketch=0;outlineConnect=0;gradientColor=none;html=1;whiteSpace=wrap;fontSize=12;fontStyle=0;shape=mxgraph.aws4.group;grIcon=mxgraph.aws4.group_availability_zone;strokeColor=#545B64;fillColor=none;verticalAlign=top;align=left;spacingLeft=30;fontColor=#545B64;dashed=1;" parent="S1eIZQToErscqUUK1vJn-5" vertex="1">
          <mxGeometry x="-10" y="-200" width="290" height="560" as="geometry" />
        </mxCell>
        <mxCell id="S1eIZQToErscqUUK1vJn-37" value="Public subnet" style="points=[[0,0],[0.25,0],[0.5,0],[0.75,0],[1,0],[1,0.25],[1,0.5],[1,0.75],[1,1],[0.75,1],[0.5,1],[0.25,1],[0,1],[0,0.75],[0,0.5],[0,0.25]];outlineConnect=0;gradientColor=none;html=1;whiteSpace=wrap;fontSize=12;fontStyle=0;container=1;pointerEvents=0;collapsible=0;recursiveResize=0;shape=mxgraph.aws4.group;grIcon=mxgraph.aws4.group_security_group;grStroke=0;strokeColor=#248814;fillColor=#E9F3E6;verticalAlign=top;align=left;spacingLeft=30;fontColor=#248814;dashed=0;" parent="S1eIZQToErscqUUK1vJn-5" vertex="1">
          <mxGeometry y="-150" width="255" height="130" as="geometry" />
        </mxCell>
        <mxCell id="S1eIZQToErscqUUK1vJn-81" value="" style="sketch=0;points=[[0,0,0],[0.25,0,0],[0.5,0,0],[0.75,0,0],[1,0,0],[0,1,0],[0.25,1,0],[0.5,1,0],[0.75,1,0],[1,1,0],[0,0.25,0],[0,0.5,0],[0,0.75,0],[1,0.25,0],[1,0.5,0],[1,0.75,0]];outlineConnect=0;fontColor=#232F3E;gradientColor=#F78E04;gradientDirection=north;fillColor=#D05C17;strokeColor=#ffffff;dashed=0;verticalLabelPosition=bottom;verticalAlign=top;align=center;html=1;fontSize=12;fontStyle=0;aspect=fixed;shape=mxgraph.aws4.resourceIcon;resIcon=mxgraph.aws4.ec2;" parent="S1eIZQToErscqUUK1vJn-37" vertex="1">
          <mxGeometry x="48" y="35.5" width="59" height="59" as="geometry" />
        </mxCell>
        <mxCell id="S1eIZQToErscqUUK1vJn-82" value="Bastion-server&lt;br&gt;" style="text;html=1;align=center;verticalAlign=middle;resizable=0;points=[];autosize=1;strokeColor=none;fillColor=none;" parent="S1eIZQToErscqUUK1vJn-37" vertex="1">
          <mxGeometry x="27.5" y="100" width="100" height="30" as="geometry" />
        </mxCell>
        <mxCell id="S1eIZQToErscqUUK1vJn-103" value="Internet Gateway&lt;br&gt;" style="text;html=1;align=center;verticalAlign=middle;resizable=0;points=[];autosize=1;strokeColor=none;fillColor=none;" parent="S1eIZQToErscqUUK1vJn-37" vertex="1">
          <mxGeometry x="145" y="27" width="110" height="30" as="geometry" />
        </mxCell>
        <mxCell id="S1eIZQToErscqUUK1vJn-45" value="" style="rounded=1;whiteSpace=wrap;html=1;" parent="S1eIZQToErscqUUK1vJn-5" vertex="1">
          <mxGeometry x="-10" y="109" width="260" height="81" as="geometry" />
        </mxCell>
        <mxCell id="S1eIZQToErscqUUK1vJn-62" value="" style="endArrow=classic;startArrow=classic;html=1;rounded=0;entryX=0.5;entryY=1;entryDx=0;entryDy=0;entryPerimeter=0;" parent="S1eIZQToErscqUUK1vJn-5" edge="1">
          <mxGeometry width="50" height="50" relative="1" as="geometry">
            <mxPoint x="50" y="110" as="sourcePoint" />
            <mxPoint x="49.5" y="86" as="targetPoint" />
          </mxGeometry>
        </mxCell>
        <mxCell id="S1eIZQToErscqUUK1vJn-83" value="" style="sketch=0;outlineConnect=0;fontColor=#232F3E;gradientColor=none;fillColor=#4D27AA;strokeColor=none;dashed=0;verticalLabelPosition=bottom;verticalAlign=top;align=center;html=1;fontSize=12;fontStyle=0;aspect=fixed;pointerEvents=1;shape=mxgraph.aws4.endpoints;" parent="S1eIZQToErscqUUK1vJn-5" vertex="1">
          <mxGeometry x="160" y="23.5" width="62.5" height="62.5" as="geometry" />
        </mxCell>
        <mxCell id="S1eIZQToErscqUUK1vJn-90" value="VPC endpoints&lt;br&gt;&lt;br&gt;" style="text;html=1;align=center;verticalAlign=middle;resizable=0;points=[];autosize=1;strokeColor=none;fillColor=none;" parent="S1eIZQToErscqUUK1vJn-5" vertex="1">
          <mxGeometry x="140" y="79" width="100" height="40" as="geometry" />
        </mxCell>
        <mxCell id="S1eIZQToErscqUUK1vJn-22" value="RDS" style="text;html=1;align=center;verticalAlign=middle;resizable=0;points=[];autosize=1;strokeColor=none;fillColor=none;" parent="S1eIZQToErscqUUK1vJn-5" vertex="1">
          <mxGeometry x="95" y="320" width="50" height="30" as="geometry" />
        </mxCell>
        <mxCell id="HV3YZ5zd9KJwaK8PfF7S-1" value="" style="outlineConnect=0;dashed=0;verticalLabelPosition=bottom;verticalAlign=top;align=center;html=1;shape=mxgraph.aws3.rds;fillColor=#2E73B8;gradientColor=none;" vertex="1" parent="S1eIZQToErscqUUK1vJn-5">
          <mxGeometry x="84" y="239" width="72" height="81" as="geometry" />
        </mxCell>
        <mxCell id="S1eIZQToErscqUUK1vJn-13" value="us-east-1" style="text;html=1;align=center;verticalAlign=middle;resizable=0;points=[];autosize=1;strokeColor=none;fillColor=none;" parent="S1eIZQToErscqUUK1vJn-3" vertex="1">
          <mxGeometry x="50" width="70" height="30" as="geometry" />
        </mxCell>
        <mxCell id="S1eIZQToErscqUUK1vJn-25" value="Availability zone" style="sketch=0;outlineConnect=0;gradientColor=none;html=1;whiteSpace=wrap;fontSize=12;fontStyle=0;shape=mxgraph.aws4.group;grIcon=mxgraph.aws4.group_availability_zone;strokeColor=#545B64;fillColor=none;verticalAlign=top;align=left;spacingLeft=30;fontColor=#545B64;dashed=1;" parent="S1eIZQToErscqUUK1vJn-3" vertex="1">
          <mxGeometry x="430" y="110" width="260" height="560" as="geometry" />
        </mxCell>
        <mxCell id="S1eIZQToErscqUUK1vJn-24" value="" style="outlineConnect=0;dashed=0;verticalLabelPosition=bottom;verticalAlign=top;align=center;html=1;shape=mxgraph.aws3.application_load_balancer;fillColor=#F58534;gradientColor=none;" parent="S1eIZQToErscqUUK1vJn-3" vertex="1">
          <mxGeometry x="330" y="270" width="69" height="72" as="geometry" />
        </mxCell>
        <mxCell id="S1eIZQToErscqUUK1vJn-34" value="Private subnet" style="points=[[0,0],[0.25,0],[0.5,0],[0.75,0],[1,0],[1,0.25],[1,0.5],[1,0.75],[1,1],[0.75,1],[0.5,1],[0.25,1],[0,1],[0,0.75],[0,0.5],[0,0.25]];outlineConnect=0;gradientColor=none;html=1;whiteSpace=wrap;fontSize=12;fontStyle=0;container=1;pointerEvents=0;collapsible=0;recursiveResize=0;shape=mxgraph.aws4.group;grIcon=mxgraph.aws4.group_security_group;grStroke=0;strokeColor=#147EBA;fillColor=#E6F2F8;verticalAlign=top;align=left;spacingLeft=30;fontColor=#147EBA;dashed=0;" parent="S1eIZQToErscqUUK1vJn-3" vertex="1">
          <mxGeometry x="440" y="310" width="248" height="350" as="geometry" />
        </mxCell>
        <mxCell id="S1eIZQToErscqUUK1vJn-46" value="" style="rounded=1;whiteSpace=wrap;html=1;" parent="S1eIZQToErscqUUK1vJn-34" vertex="1">
          <mxGeometry x="-12" y="109" width="260" height="81" as="geometry" />
        </mxCell>
        <mxCell id="S1eIZQToErscqUUK1vJn-33" value="RDS" style="text;html=1;align=center;verticalAlign=middle;resizable=0;points=[];autosize=1;strokeColor=none;fillColor=none;" parent="S1eIZQToErscqUUK1vJn-34" vertex="1">
          <mxGeometry x="93" y="322" width="50" height="30" as="geometry" />
        </mxCell>
        <mxCell id="HV3YZ5zd9KJwaK8PfF7S-56" value="" style="outlineConnect=0;dashed=0;verticalLabelPosition=bottom;verticalAlign=top;align=center;html=1;shape=mxgraph.aws3.rds;fillColor=#2E73B8;gradientColor=none;" vertex="1" parent="S1eIZQToErscqUUK1vJn-34">
          <mxGeometry x="79" y="239" width="72" height="81" as="geometry" />
        </mxCell>
        <mxCell id="S1eIZQToErscqUUK1vJn-35" value="ALB" style="text;html=1;align=center;verticalAlign=middle;resizable=0;points=[];autosize=1;strokeColor=none;fillColor=none;" parent="S1eIZQToErscqUUK1vJn-3" vertex="1">
          <mxGeometry x="339.5" y="365" width="50" height="30" as="geometry" />
        </mxCell>
        <mxCell id="S1eIZQToErscqUUK1vJn-36" value="ssl 443&lt;br&gt;" style="text;html=1;align=center;verticalAlign=middle;resizable=0;points=[];autosize=1;strokeColor=none;fillColor=none;" parent="S1eIZQToErscqUUK1vJn-3" vertex="1">
          <mxGeometry x="334.5" y="342" width="60" height="30" as="geometry" />
        </mxCell>
        <mxCell id="S1eIZQToErscqUUK1vJn-16" value="" style="sketch=0;points=[[0,0,0],[0.25,0,0],[0.5,0,0],[0.75,0,0],[1,0,0],[0,1,0],[0.25,1,0],[0.5,1,0],[0.75,1,0],[1,1,0],[0,0.25,0],[0,0.5,0],[0,0.75,0],[1,0.25,0],[1,0.5,0],[1,0.75,0]];outlineConnect=0;fontColor=#232F3E;gradientColor=#F78E04;gradientDirection=north;fillColor=#D05C17;strokeColor=#ffffff;dashed=0;verticalLabelPosition=bottom;verticalAlign=top;align=center;html=1;fontSize=12;fontStyle=0;aspect=fixed;shape=mxgraph.aws4.resourceIcon;resIcon=mxgraph.aws4.fargate;" parent="S1eIZQToErscqUUK1vJn-3" vertex="1">
          <mxGeometry x="50" y="430" width="48" height="48" as="geometry" />
        </mxCell>
        <mxCell id="S1eIZQToErscqUUK1vJn-17" value="" style="sketch=0;points=[[0,0,0],[0.25,0,0],[0.5,0,0],[0.75,0,0],[1,0,0],[0,1,0],[0.25,1,0],[0.5,1,0],[0.75,1,0],[1,1,0],[0,0.25,0],[0,0.5,0],[0,0.75,0],[1,0.25,0],[1,0.5,0],[1,0.75,0]];outlineConnect=0;fontColor=#232F3E;gradientColor=#F78E04;gradientDirection=north;fillColor=#D05C17;strokeColor=#ffffff;dashed=0;verticalLabelPosition=bottom;verticalAlign=top;align=center;html=1;fontSize=12;fontStyle=0;aspect=fixed;shape=mxgraph.aws4.resourceIcon;resIcon=mxgraph.aws4.fargate;" parent="S1eIZQToErscqUUK1vJn-3" vertex="1">
          <mxGeometry x="120" y="430" width="48" height="48" as="geometry" />
        </mxCell>
        <mxCell id="S1eIZQToErscqUUK1vJn-18" value="" style="sketch=0;points=[[0,0,0],[0.25,0,0],[0.5,0,0],[0.75,0,0],[1,0,0],[0,1,0],[0.25,1,0],[0.5,1,0],[0.75,1,0],[1,1,0],[0,0.25,0],[0,0.5,0],[0,0.75,0],[1,0.25,0],[1,0.5,0],[1,0.75,0]];outlineConnect=0;fontColor=#232F3E;gradientColor=#F78E04;gradientDirection=north;fillColor=#D05C17;strokeColor=#ffffff;dashed=0;verticalLabelPosition=bottom;verticalAlign=top;align=center;html=1;fontSize=12;fontStyle=0;aspect=fixed;shape=mxgraph.aws4.resourceIcon;resIcon=mxgraph.aws4.fargate;" parent="S1eIZQToErscqUUK1vJn-3" vertex="1">
          <mxGeometry x="180" y="430" width="48" height="48" as="geometry" />
        </mxCell>
        <mxCell id="S1eIZQToErscqUUK1vJn-19" value="" style="sketch=0;points=[[0,0,0],[0.25,0,0],[0.5,0,0],[0.75,0,0],[1,0,0],[0,1,0],[0.25,1,0],[0.5,1,0],[0.75,1,0],[1,1,0],[0,0.25,0],[0,0.5,0],[0,0.75,0],[1,0.25,0],[1,0.5,0],[1,0.75,0]];outlineConnect=0;fontColor=#232F3E;gradientColor=#F78E04;gradientDirection=north;fillColor=#D05C17;strokeColor=#ffffff;dashed=0;verticalLabelPosition=bottom;verticalAlign=top;align=center;html=1;fontSize=12;fontStyle=0;aspect=fixed;shape=mxgraph.aws4.resourceIcon;resIcon=mxgraph.aws4.fargate;" parent="S1eIZQToErscqUUK1vJn-3" vertex="1">
          <mxGeometry x="242" y="430" width="48" height="48" as="geometry" />
        </mxCell>
        <mxCell id="HV3YZ5zd9KJwaK8PfF7S-58" value="" style="rounded=0;orthogonalLoop=1;jettySize=auto;html=1;" edge="1" parent="S1eIZQToErscqUUK1vJn-3" target="HV3YZ5zd9KJwaK8PfF7S-1">
          <mxGeometry relative="1" as="geometry">
            <mxPoint x="170" y="500" as="sourcePoint" />
          </mxGeometry>
        </mxCell>
        <mxCell id="S1eIZQToErscqUUK1vJn-20" value="ECS Fargate" style="text;html=1;align=center;verticalAlign=middle;resizable=0;points=[];autosize=1;strokeColor=none;fillColor=none;" parent="S1eIZQToErscqUUK1vJn-3" vertex="1">
          <mxGeometry x="120" y="478" width="90" height="30" as="geometry" />
        </mxCell>
        <mxCell id="S1eIZQToErscqUUK1vJn-27" value="" style="sketch=0;points=[[0,0,0],[0.25,0,0],[0.5,0,0],[0.75,0,0],[1,0,0],[0,1,0],[0.25,1,0],[0.5,1,0],[0.75,1,0],[1,1,0],[0,0.25,0],[0,0.5,0],[0,0.75,0],[1,0.25,0],[1,0.5,0],[1,0.75,0]];outlineConnect=0;fontColor=#232F3E;gradientColor=#F78E04;gradientDirection=north;fillColor=#D05C17;strokeColor=#ffffff;dashed=0;verticalLabelPosition=bottom;verticalAlign=top;align=center;html=1;fontSize=12;fontStyle=0;aspect=fixed;shape=mxgraph.aws4.resourceIcon;resIcon=mxgraph.aws4.fargate;" parent="S1eIZQToErscqUUK1vJn-3" vertex="1">
          <mxGeometry x="510" y="430" width="48" height="48" as="geometry" />
        </mxCell>
        <mxCell id="S1eIZQToErscqUUK1vJn-28" value="" style="sketch=0;points=[[0,0,0],[0.25,0,0],[0.5,0,0],[0.75,0,0],[1,0,0],[0,1,0],[0.25,1,0],[0.5,1,0],[0.75,1,0],[1,1,0],[0,0.25,0],[0,0.5,0],[0,0.75,0],[1,0.25,0],[1,0.5,0],[1,0.75,0]];outlineConnect=0;fontColor=#232F3E;gradientColor=#F78E04;gradientDirection=north;fillColor=#D05C17;strokeColor=#ffffff;dashed=0;verticalLabelPosition=bottom;verticalAlign=top;align=center;html=1;fontSize=12;fontStyle=0;aspect=fixed;shape=mxgraph.aws4.resourceIcon;resIcon=mxgraph.aws4.fargate;" parent="S1eIZQToErscqUUK1vJn-3" vertex="1">
          <mxGeometry x="440" y="430" width="48" height="48" as="geometry" />
        </mxCell>
        <mxCell id="S1eIZQToErscqUUK1vJn-29" value="" style="sketch=0;points=[[0,0,0],[0.25,0,0],[0.5,0,0],[0.75,0,0],[1,0,0],[0,1,0],[0.25,1,0],[0.5,1,0],[0.75,1,0],[1,1,0],[0,0.25,0],[0,0.5,0],[0,0.75,0],[1,0.25,0],[1,0.5,0],[1,0.75,0]];outlineConnect=0;fontColor=#232F3E;gradientColor=#F78E04;gradientDirection=north;fillColor=#D05C17;strokeColor=#ffffff;dashed=0;verticalLabelPosition=bottom;verticalAlign=top;align=center;html=1;fontSize=12;fontStyle=0;aspect=fixed;shape=mxgraph.aws4.resourceIcon;resIcon=mxgraph.aws4.fargate;" parent="S1eIZQToErscqUUK1vJn-3" vertex="1">
          <mxGeometry x="570" y="430" width="48" height="48" as="geometry" />
        </mxCell>
        <mxCell id="S1eIZQToErscqUUK1vJn-30" value="" style="sketch=0;points=[[0,0,0],[0.25,0,0],[0.5,0,0],[0.75,0,0],[1,0,0],[0,1,0],[0.25,1,0],[0.5,1,0],[0.75,1,0],[1,1,0],[0,0.25,0],[0,0.5,0],[0,0.75,0],[1,0.25,0],[1,0.5,0],[1,0.75,0]];outlineConnect=0;fontColor=#232F3E;gradientColor=#F78E04;gradientDirection=north;fillColor=#D05C17;strokeColor=#ffffff;dashed=0;verticalLabelPosition=bottom;verticalAlign=top;align=center;html=1;fontSize=12;fontStyle=0;aspect=fixed;shape=mxgraph.aws4.resourceIcon;resIcon=mxgraph.aws4.fargate;" parent="S1eIZQToErscqUUK1vJn-3" vertex="1">
          <mxGeometry x="632" y="430" width="48" height="48" as="geometry" />
        </mxCell>
        <mxCell id="HV3YZ5zd9KJwaK8PfF7S-61" value="" style="edgeStyle=orthogonalEdgeStyle;rounded=0;orthogonalLoop=1;jettySize=auto;html=1;" edge="1" parent="S1eIZQToErscqUUK1vJn-3" source="S1eIZQToErscqUUK1vJn-32" target="HV3YZ5zd9KJwaK8PfF7S-56">
          <mxGeometry relative="1" as="geometry" />
        </mxCell>
        <mxCell id="S1eIZQToErscqUUK1vJn-32" value="ECS Fargate" style="text;html=1;align=center;verticalAlign=middle;resizable=0;points=[];autosize=1;strokeColor=none;fillColor=none;" parent="S1eIZQToErscqUUK1vJn-3" vertex="1">
          <mxGeometry x="510" y="478" width="90" height="30" as="geometry" />
        </mxCell>
        <mxCell id="S1eIZQToErscqUUK1vJn-49" value="" style="sketch=0;points=[[0,0,0],[0.25,0,0],[0.5,0,0],[0.75,0,0],[1,0,0],[0,1,0],[0.25,1,0],[0.5,1,0],[0.75,1,0],[1,1,0],[0,0.25,0],[0,0.5,0],[0,0.75,0],[1,0.25,0],[1,0.5,0],[1,0.75,0]];outlineConnect=0;fontColor=#232F3E;gradientColor=#F54749;gradientDirection=north;fillColor=#C7131F;strokeColor=#ffffff;dashed=0;verticalLabelPosition=bottom;verticalAlign=top;align=center;html=1;fontSize=12;fontStyle=0;aspect=fixed;shape=mxgraph.aws4.resourceIcon;resIcon=mxgraph.aws4.waf;" parent="S1eIZQToErscqUUK1vJn-3" vertex="1">
          <mxGeometry x="339.5" y="180" width="60" height="60" as="geometry" />
        </mxCell>
        <mxCell id="S1eIZQToErscqUUK1vJn-53" value="WAF" style="text;html=1;align=center;verticalAlign=middle;resizable=0;points=[];autosize=1;strokeColor=none;fillColor=none;" parent="S1eIZQToErscqUUK1vJn-3" vertex="1">
          <mxGeometry x="360" y="240" width="50" height="30" as="geometry" />
        </mxCell>
        <mxCell id="S1eIZQToErscqUUK1vJn-59" value="" style="endArrow=classic;startArrow=classic;html=1;rounded=0;exitX=1.014;exitY=0.638;exitDx=0;exitDy=0;exitPerimeter=0;entryX=0.592;entryY=-0.067;entryDx=0;entryDy=0;entryPerimeter=0;" parent="S1eIZQToErscqUUK1vJn-3" source="S1eIZQToErscqUUK1vJn-45" target="S1eIZQToErscqUUK1vJn-36" edge="1">
          <mxGeometry width="50" height="50" relative="1" as="geometry">
            <mxPoint x="340" y="400" as="sourcePoint" />
            <mxPoint x="390" y="350" as="targetPoint" />
            <Array as="points">
              <mxPoint x="370" y="471" />
            </Array>
          </mxGeometry>
        </mxCell>
        <mxCell id="S1eIZQToErscqUUK1vJn-64" value="MS-ALB&lt;br&gt;" style="edgeLabel;html=1;align=center;verticalAlign=middle;resizable=0;points=[];" parent="S1eIZQToErscqUUK1vJn-59" vertex="1" connectable="0">
          <mxGeometry x="0.5811" y="5" relative="1" as="geometry">
            <mxPoint as="offset" />
          </mxGeometry>
        </mxCell>
        <mxCell id="S1eIZQToErscqUUK1vJn-92" style="edgeStyle=orthogonalEdgeStyle;rounded=0;orthogonalLoop=1;jettySize=auto;html=1;entryX=0.623;entryY=0.012;entryDx=0;entryDy=0;entryPerimeter=0;" parent="S1eIZQToErscqUUK1vJn-3" source="S1eIZQToErscqUUK1vJn-88" target="S1eIZQToErscqUUK1vJn-46" edge="1">
          <mxGeometry relative="1" as="geometry">
            <Array as="points">
              <mxPoint x="590" y="390" />
            </Array>
          </mxGeometry>
        </mxCell>
        <mxCell id="S1eIZQToErscqUUK1vJn-88" value="" style="sketch=0;outlineConnect=0;fontColor=#232F3E;gradientColor=none;fillColor=#4D27AA;strokeColor=none;dashed=0;verticalLabelPosition=bottom;verticalAlign=top;align=center;html=1;fontSize=12;fontStyle=0;aspect=fixed;pointerEvents=1;shape=mxgraph.aws4.endpoints;" parent="S1eIZQToErscqUUK1vJn-3" vertex="1">
          <mxGeometry x="462.5" y="332.5" width="67.5" height="67.5" as="geometry" />
        </mxCell>
        <mxCell id="S1eIZQToErscqUUK1vJn-91" value="VPC endpoints&lt;br&gt;&lt;br&gt;" style="text;html=1;align=center;verticalAlign=middle;resizable=0;points=[];autosize=1;strokeColor=none;fillColor=none;" parent="S1eIZQToErscqUUK1vJn-3" vertex="1">
          <mxGeometry x="443.75" y="395" width="100" height="40" as="geometry" />
        </mxCell>
        <mxCell id="S1eIZQToErscqUUK1vJn-73" style="edgeStyle=orthogonalEdgeStyle;curved=1;rounded=0;orthogonalLoop=1;jettySize=auto;html=1;exitX=0.5;exitY=1;exitDx=0;exitDy=0;exitPerimeter=0;" parent="UEzPUAAOIrF-is8g5C7q-175" source="S1eIZQToErscqUUK1vJn-8" edge="1">
          <mxGeometry relative="1" as="geometry">
            <mxPoint x="740" y="500" as="targetPoint" />
            <Array as="points">
              <mxPoint x="1019" y="540" />
              <mxPoint x="850" y="540" />
            </Array>
          </mxGeometry>
        </mxCell>
        <mxCell id="S1eIZQToErscqUUK1vJn-8" value="" style="sketch=0;points=[[0,0,0],[0.25,0,0],[0.5,0,0],[0.75,0,0],[1,0,0],[0,1,0],[0.25,1,0],[0.5,1,0],[0.75,1,0],[1,1,0],[0,0.25,0],[0,0.5,0],[0,0.75,0],[1,0.25,0],[1,0.5,0],[1,0.75,0]];outlineConnect=0;fontColor=#232F3E;gradientColor=#60A337;gradientDirection=north;fillColor=#277116;strokeColor=#ffffff;dashed=0;verticalLabelPosition=bottom;verticalAlign=top;align=center;html=1;fontSize=12;fontStyle=0;aspect=fixed;shape=mxgraph.aws4.resourceIcon;resIcon=mxgraph.aws4.s3;" parent="UEzPUAAOIrF-is8g5C7q-175" vertex="1">
          <mxGeometry x="980" y="340" width="78" height="78" as="geometry" />
        </mxCell>
        <mxCell id="S1eIZQToErscqUUK1vJn-63" style="edgeStyle=orthogonalEdgeStyle;rounded=0;orthogonalLoop=1;jettySize=auto;html=1;exitX=1;exitY=0.5;exitDx=0;exitDy=0;exitPerimeter=0;entryX=0;entryY=0.5;entryDx=0;entryDy=0;" parent="UEzPUAAOIrF-is8g5C7q-175" source="S1eIZQToErscqUUK1vJn-11" target="S1eIZQToErscqUUK1vJn-45" edge="1">
          <mxGeometry relative="1" as="geometry" />
        </mxCell>
        <mxCell id="S1eIZQToErscqUUK1vJn-11" value="" style="sketch=0;points=[[0,0,0],[0.25,0,0],[0.5,0,0],[0.75,0,0],[1,0,0],[0,1,0],[0.25,1,0],[0.5,1,0],[0.75,1,0],[1,1,0],[0,0.25,0],[0,0.5,0],[0,0.75,0],[1,0.25,0],[1,0.5,0],[1,0.75,0]];outlineConnect=0;fontColor=#232F3E;gradientColor=#F54749;gradientDirection=north;fillColor=#C7131F;strokeColor=#ffffff;dashed=0;verticalLabelPosition=bottom;verticalAlign=top;align=center;html=1;fontSize=12;fontStyle=0;aspect=fixed;shape=mxgraph.aws4.resourceIcon;resIcon=mxgraph.aws4.secrets_manager;" parent="UEzPUAAOIrF-is8g5C7q-175" vertex="1">
          <mxGeometry x="30" y="240" width="80" height="80" as="geometry" />
        </mxCell>
        <mxCell id="S1eIZQToErscqUUK1vJn-23" value="" style="sketch=0;points=[[0,0,0],[0.25,0,0],[0.5,0,0],[0.75,0,0],[1,0,0],[0,1,0],[0.25,1,0],[0.5,1,0],[0.75,1,0],[1,1,0],[0,0.25,0],[0,0.5,0],[0,0.75,0],[1,0.25,0],[1,0.5,0],[1,0.75,0]];outlineConnect=0;fontColor=#232F3E;gradientColor=#945DF2;gradientDirection=north;fillColor=#5A30B5;strokeColor=#ffffff;dashed=0;verticalLabelPosition=bottom;verticalAlign=top;align=center;html=1;fontSize=12;fontStyle=0;aspect=fixed;shape=mxgraph.aws4.resourceIcon;resIcon=mxgraph.aws4.route_53;" parent="UEzPUAAOIrF-is8g5C7q-175" vertex="1">
          <mxGeometry x="490" y="10" width="80" height="80" as="geometry" />
        </mxCell>
        <mxCell id="S1eIZQToErscqUUK1vJn-52" value="" style="endArrow=classic;startArrow=classic;html=1;rounded=0;entryX=0.5;entryY=1;entryDx=0;entryDy=0;entryPerimeter=0;exitX=0.5;exitY=0;exitDx=0;exitDy=0;exitPerimeter=0;" parent="UEzPUAAOIrF-is8g5C7q-175" source="S1eIZQToErscqUUK1vJn-24" target="S1eIZQToErscqUUK1vJn-23" edge="1">
          <mxGeometry width="50" height="50" relative="1" as="geometry">
            <mxPoint x="530" y="390" as="sourcePoint" />
            <mxPoint x="550" y="480" as="targetPoint" />
          </mxGeometry>
        </mxCell>
        <mxCell id="S1eIZQToErscqUUK1vJn-78" value="S3 Bucket&lt;br&gt;" style="text;html=1;align=center;verticalAlign=middle;resizable=0;points=[];autosize=1;strokeColor=none;fillColor=none;" parent="UEzPUAAOIrF-is8g5C7q-175" vertex="1">
          <mxGeometry x="986" y="418" width="80" height="30" as="geometry" />
        </mxCell>
        <mxCell id="S1eIZQToErscqUUK1vJn-101" style="edgeStyle=none;rounded=0;orthogonalLoop=1;jettySize=auto;html=1;entryX=0;entryY=0.75;entryDx=0;entryDy=0;" parent="UEzPUAAOIrF-is8g5C7q-175" source="S1eIZQToErscqUUK1vJn-100" target="S1eIZQToErscqUUK1vJn-45" edge="1">
          <mxGeometry relative="1" as="geometry" />
        </mxCell>
        <mxCell id="S1eIZQToErscqUUK1vJn-100" value="Amazon ECR" style="sketch=0;outlineConnect=0;fontColor=#232F3E;gradientColor=none;strokeColor=#ffffff;fillColor=#232F3E;dashed=0;verticalLabelPosition=middle;verticalAlign=bottom;align=center;html=1;whiteSpace=wrap;fontSize=10;fontStyle=1;spacing=3;shape=mxgraph.aws4.productIcon;prIcon=mxgraph.aws4.ecr;" parent="UEzPUAAOIrF-is8g5C7q-175" vertex="1">
          <mxGeometry x="30" y="560" width="80" height="100" as="geometry" />
        </mxCell>
        <mxCell id="UEzPUAAOIrF-is8g5C7q-201" style="edgeStyle=orthogonalEdgeStyle;rounded=0;orthogonalLoop=1;jettySize=auto;html=1;startArrow=none;startFill=0;endArrow=open;endFill=0;strokeColor=#808080;strokeWidth=2;" parent="1" edge="1">
          <mxGeometry relative="1" as="geometry">
            <mxPoint x="680" y="-450" as="targetPoint" />
          </mxGeometry>
        </mxCell>
        <mxCell id="S1eIZQToErscqUUK1vJn-54" value="" style="sketch=0;points=[[0,0,0],[0.25,0,0],[0.5,0,0],[0.75,0,0],[1,0,0],[0,1,0],[0.25,1,0],[0.5,1,0],[0.75,1,0],[1,1,0],[0,0.25,0],[0,0.5,0],[0,0.75,0],[1,0.25,0],[1,0.5,0],[1,0.75,0]];outlineConnect=0;fontColor=#232F3E;gradientColor=#4AB29A;gradientDirection=north;fillColor=#116D5B;strokeColor=#ffffff;dashed=0;verticalLabelPosition=bottom;verticalAlign=top;align=center;html=1;fontSize=12;fontStyle=0;aspect=fixed;shape=mxgraph.aws4.resourceIcon;resIcon=mxgraph.aws4.desktop_and_app_streaming;" parent="1" vertex="1">
          <mxGeometry x="575" y="-827" width="50" height="50" as="geometry" />
        </mxCell>
        <mxCell id="S1eIZQToErscqUUK1vJn-56" value="" style="endArrow=classic;startArrow=classic;html=1;rounded=0;entryX=0.5;entryY=1;entryDx=0;entryDy=0;entryPerimeter=0;exitX=0.5;exitY=0;exitDx=0;exitDy=0;exitPerimeter=0;" parent="1" source="S1eIZQToErscqUUK1vJn-23" target="S1eIZQToErscqUUK1vJn-54" edge="1">
          <mxGeometry width="50" height="50" relative="1" as="geometry">
            <mxPoint x="575" y="-720" as="sourcePoint" />
            <mxPoint x="625" y="-770" as="targetPoint" />
          </mxGeometry>
        </mxCell>
        <mxCell id="S1eIZQToErscqUUK1vJn-60" value="" style="endArrow=classic;html=1;rounded=0;entryX=0.004;entryY=0.621;entryDx=0;entryDy=0;entryPerimeter=0;" parent="1" target="S1eIZQToErscqUUK1vJn-46" edge="1">
          <mxGeometry width="50" height="50" relative="1" as="geometry">
            <mxPoint x="600" y="-160" as="sourcePoint" />
            <mxPoint x="600" y="-160" as="targetPoint" />
            <Array as="points">
              <mxPoint x="660" y="-160" />
            </Array>
          </mxGeometry>
        </mxCell>
        <mxCell id="S1eIZQToErscqUUK1vJn-95" value="" style="endArrow=none;dashed=1;html=1;rounded=0;" parent="1" source="S1eIZQToErscqUUK1vJn-83" edge="1">
          <mxGeometry width="50" height="50" relative="1" as="geometry">
            <mxPoint x="570" y="-30" as="sourcePoint" />
            <mxPoint x="690" y="-270" as="targetPoint" />
            <Array as="points">
              <mxPoint x="630" y="-270" />
              <mxPoint x="690" y="-270" />
            </Array>
          </mxGeometry>
        </mxCell>
        <mxCell id="S1eIZQToErscqUUK1vJn-99" value="" style="endArrow=none;dashed=1;html=1;rounded=0;" parent="1" target="S1eIZQToErscqUUK1vJn-89" edge="1">
          <mxGeometry width="50" height="50" relative="1" as="geometry">
            <mxPoint x="480" y="-320" as="sourcePoint" />
            <mxPoint x="620" y="-80" as="targetPoint" />
            <Array as="points">
              <mxPoint x="480" y="-320" />
            </Array>
          </mxGeometry>
        </mxCell>
        <mxCell id="S1eIZQToErscqUUK1vJn-89" value="NAT gateway" style="sketch=0;outlineConnect=0;fontColor=#232F3E;gradientColor=none;strokeColor=#232F3E;fillColor=#ffffff;dashed=0;verticalLabelPosition=bottom;verticalAlign=top;align=center;html=1;fontSize=12;fontStyle=0;aspect=fixed;shape=mxgraph.aws4.resourceIcon;resIcon=mxgraph.aws4.nat_gateway;" parent="1" vertex="1">
          <mxGeometry x="450" y="-400" width="60" height="60" as="geometry" />
        </mxCell>
        <mxCell id="S1eIZQToErscqUUK1vJn-102" value="" style="outlineConnect=0;dashed=0;verticalLabelPosition=bottom;verticalAlign=top;align=center;html=1;shape=mxgraph.aws3.internet_gateway;fillColor=#F58534;gradientColor=none;" parent="1" vertex="1">
          <mxGeometry x="440" y="-510" width="69" height="72" as="geometry" />
        </mxCell>
      </root>
    </mxGraphModel>
  </diagram>
</mxfile>
